<svg width="134" height="21" viewBox="0 0 134 21" fill="none" xmlns="http://www.w3.org/2000/svg">
<path fill-rule="evenodd" clip-rule="evenodd" d="M68.6388 17.3177C69.8621 18.0405 71.2583 18.416 72.6792 18.4041C74.0923 18.414 75.4807 18.0384 76.6962 17.3177C77.913 16.6051 78.9231 15.5868 79.6251 14.3638C80.3362 13.1296 80.7119 11.7299 80.7119 10.3052C80.7119 8.88054 80.3362 7.48083 79.6251 6.24661C78.9192 5.02903 77.9104 4.01542 76.6962 3.30484C75.4729 2.59335 74.0832 2.21843 72.6675 2.21843C71.2531 2.21843 69.8621 2.59335 68.6401 3.30484C67.4259 4.01334 66.4197 5.02773 65.7216 6.24661C65.0066 7.4768 64.6361 8.87638 64.6478 10.2991C64.6426 11.7156 65.0079 13.1088 65.7086 14.3401C66.408 15.5715 67.4181 16.5981 68.6388 17.3177ZM69.6645 5.0627C70.5758 4.51956 71.6184 4.23668 72.6792 4.24474C73.74 4.23681 74.7826 4.51982 75.6939 5.06283C76.6013 5.59687 77.3553 6.35841 77.8779 7.27218C78.4057 8.19817 78.6839 9.24558 78.6839 10.3116C78.6839 11.3774 78.4057 12.4249 77.8779 13.3508C77.3553 14.2649 76.6026 15.0263 75.6939 15.5601C74.78 16.0957 73.7387 16.378 72.6792 16.378C71.6197 16.378 70.5784 16.0957 69.6645 15.5601C68.7558 15.0264 68.0031 14.2649 67.4792 13.3507C66.9514 12.4247 66.6732 11.3772 66.6732 10.3113C66.6732 9.24545 66.9514 8.19791 67.4792 7.27205C68.0031 6.35802 68.7558 5.59648 69.6645 5.0627ZM59.6677 18.2572H57.1043L51.0747 9.73724H53.3694C53.909 9.74491 54.4483 9.70409 54.9806 9.61504C55.3124 9.56148 55.6392 9.47984 55.9572 9.37103C56.4534 9.16394 56.8749 8.81073 57.1655 8.35846C57.4302 7.97301 57.5783 7.51957 57.5922 7.05235C57.5906 6.59228 57.4456 6.1443 57.1771 5.77068C56.8698 5.34701 56.4576 5.01044 55.9809 4.79412C55.4154 4.5323 54.7976 4.40295 54.1745 4.41582H50.4882L50.537 18.2577H48.4619V2.36468H54.1745C54.9065 2.35896 55.6339 2.48298 56.3228 2.73089C56.9709 2.96372 57.5679 3.32018 58.0804 3.78051C58.5564 4.20379 58.9425 4.71859 59.2155 5.2941C59.4793 5.84257 59.6171 6.44317 59.6185 7.05183C59.6264 7.98887 59.3165 8.90108 58.7396 9.63961C58.4831 9.97787 58.1838 10.2814 57.8491 10.5427C57.5137 10.8104 57.1493 11.0396 56.7628 11.2263C56.2266 11.441 55.6557 11.5566 55.0781 11.5675L59.6677 18.2572ZM90.2916 17.928C91.0456 18.2448 91.8555 18.4067 92.6719 18.4041C93.4922 18.4101 94.3047 18.2486 95.06 17.9296C95.8153 17.6106 96.4978 17.1406 97.0659 16.5486C98.2177 15.367 98.8573 13.7798 98.8482 12.1301V2.36507H96.8228V12.1308C96.8241 12.6915 96.7162 13.2471 96.5056 13.7665C96.2989 14.2784 95.9921 14.7434 95.6021 15.1335C95.216 15.5208 94.761 15.8314 94.2592 16.049C93.7587 16.2678 93.2179 16.3801 92.6719 16.3785C91.5812 16.3785 90.6049 15.9633 89.743 15.1328C89.3517 14.7429 89.0449 14.2777 88.8395 13.7658C88.6276 13.2465 88.5197 12.6908 88.5223 12.1301V2.36507H86.4956V12.1301C86.4917 12.9543 86.649 13.7714 86.9597 14.535C87.2678 15.2897 87.7241 15.9745 88.3026 16.5486C88.8616 17.1436 89.5389 17.6137 90.2916 17.928ZM117.476 2.36507V4.41582H112.081V18.2577H110.006V4.41582H104.611V2.36507H117.476ZM123.238 2.36507V18.2577H133.393V16.2314H125.263V11.3245H131.489V9.27392H125.263V4.41582H133.393V2.36507H123.238Z" fill="white"/>
<path fill-rule="evenodd" clip-rule="evenodd" d="M29.1002 10.5575C30.3864 11.8547 31.6847 13.1642 33.0107 14.4804C32.438 15.0141 31.8735 15.56 31.3083 16.1066C30.0008 17.3709 28.6892 18.6391 27.2636 19.77C25.5268 21.1484 23.4811 21.1815 21.7555 19.6374C19.3769 17.5088 17.0443 15.3207 14.8239 13.0355C14.7721 12.9822 14.7204 12.9288 14.6686 12.8755C12.3843 10.5221 10.1181 8.18749 6.3088 7.31417C7.05481 6.64486 7.76309 5.98638 8.45315 5.34484C9.95728 3.94646 11.3748 2.62861 12.9076 1.45468C15.4198 -0.469056 17.6019 -0.546016 19.9297 1.59118C23.0555 4.46099 26.0434 7.47454 29.1002 10.5575ZM9.69504 12.8933C7.19553 15.3144 4.7241 17.7085 2.12384 20.2275C-1.0128 17.9362 -0.258413 14.2235 1.70641 12.3046C3.83945 10.2214 8.17495 10.2864 9.69504 12.8933Z" fill="#5DC8DB"/>
</svg>
